<svg  width="inherit" height="inherit" viewBox="0 0 149 42" fill="none" xmlns="http://www.w3.org/2000/svg">
<path fill-rule="evenodd" clip-rule="evenodd" d="M12.0721 6.51239C9.63735 8.91566 8.27277 12.1811 8.2812 15.584C8.2812 15.8012 8.2812 16.0183 8.29716 16.2256L9.8175 14.7252C10.8013 13.75 11.9077 12.904 13.1096 12.2081C13.552 11.1668 14.1959 10.2212 15.005 9.42438L20.9706 3.51155C21.7816 2.70674 21.7816 1.40436 20.9706 0.599548C20.1591 -0.199849 18.8472 -0.199849 18.0357 0.599548L12.0721 6.51239ZM14.9551 19.8089C17.9279 16.8807 22.5742 16.4307 26.0644 18.7329L29.0392 15.7913C23.8854 11.8901 16.609 12.367 12.0202 16.9067L0.613673 28.2092C0.220747 28.598 0 29.1253 0 29.6751C0 30.2249 0.220747 30.7522 0.613673 31.141C1.42026 31.9307 2.71907 31.9307 3.52566 31.141L14.9551 19.8089ZM30.3181 35.0401C32.9051 32.4749 34.274 28.946 34.086 25.3269L32.5717 26.8273C31.585 27.803 30.4756 28.649 29.2706 29.3444C28.8303 30.3851 28.1888 31.3307 27.3822 32.1281L21.4156 38.0409C20.6057 38.8462 20.6057 40.1477 21.4156 40.9529C22.2274 41.7524 23.5396 41.7524 24.3515 40.9529L30.3181 35.0401ZM27.4341 21.7436C25.4142 23.7308 22.5513 24.6346 19.7416 24.1719V24.1621C18.5204 23.9544 17.3564 23.4972 16.3238 22.8196L13.35 25.7612C15.0177 27.0286 16.9738 27.8725 19.0473 28.2191C19.7598 28.3452 20.4823 28.4079 21.2061 28.4067C24.644 28.4071 27.9408 27.054 30.369 24.6457L41.7875 13.3334C42.5985 12.5286 42.5985 11.2262 41.7875 10.4214C41.3974 10.0365 40.8684 9.82114 40.3174 9.82299C39.7665 9.82485 39.239 10.0437 38.8516 10.4312L27.4341 21.7436ZM23.5434 20.7762C23.5429 22.0622 22.489 23.1042 21.1894 23.1039C19.8899 23.1035 18.8366 22.0609 18.8368 20.7749C18.837 19.489 19.8905 18.4466 21.1901 18.4466C21.8154 18.4456 22.4154 18.6905 22.8582 19.1275C23.3009 19.5644 23.5499 20.1575 23.5504 20.7762H23.5434Z" fill="#DA6D6A"/>
<path class="logo-text" fill-rule="evenodd" clip-rule="evenodd" d="M50.704 28.3968V13.1557H58.8843V16.0183H53.9053V18.8612H59.6914V21.7041H53.9053V28.3968H50.704ZM61.096 14.587C61.0761 13.8901 61.4867 13.2512 62.133 12.9734C62.7793 12.6957 63.5313 12.8348 64.0325 13.3249C64.5337 13.815 64.6833 14.5575 64.4102 15.2002C64.1372 15.843 63.4964 16.2568 62.7919 16.2454C61.868 16.2334 61.119 15.501 61.096 14.587ZM64.2763 28.3968H61.3464V18.0617H64.2793V28.3968H64.2763ZM69.2763 13.1557V28.3968H66.3423V13.1557H69.2763ZM81.5258 28.3968H78.5918V23.244C78.5918 21.4672 77.6631 20.7466 76.3412 20.7466C75.0904 20.902 74.182 22 74.2752 23.244V28.3968H71.3423V18.0617H74.2752V18.7823C74.9771 18.1586 75.8929 17.8232 76.8361 17.8445C78.2095 17.7948 79.5236 18.4007 80.3685 19.4732C81.2902 18.3953 82.6605 17.7951 84.0866 17.8445C87.2889 17.8445 88.8381 20.2531 88.8381 23.244V28.3968H85.9252V23.244C86.004 22.6251 85.8162 22.0019 85.4076 21.5269C84.999 21.0518 84.4074 20.7686 83.7773 20.7466C83.1429 20.7792 82.5479 21.0614 82.125 21.5305C81.702 21.9996 81.4863 22.6166 81.5258 23.244V28.3968ZM106.398 21.6646C105.92 25.6449 102.517 28.6475 98.4659 28.6633C94.636 28.6544 91.3539 25.9514 90.6498 22.2262C89.9457 18.5011 92.0187 14.807 95.5865 13.429C99.1543 12.0511 103.208 13.3788 105.241 16.5909L102.742 18.3479C101.824 16.8742 100.215 15.9603 98.4659 15.9196C95.8623 15.853 93.6608 17.8134 93.4544 20.3825C93.248 22.9516 95.1088 25.2315 97.6904 25.5728C100.272 25.914 102.672 24.1973 103.155 21.6646H106.398ZM118.773 28.3968H115.86V23.244C115.86 21.5857 114.889 20.7466 113.691 20.7466C112.305 20.7553 111.187 21.8722 111.191 23.244V28.3968H108.258V13.1557H111.191V18.802C111.943 18.1354 112.932 17.791 113.94 17.8445C116.79 17.8445 118.773 20.2531 118.773 23.244V28.3968ZM130.858 18.0617V28.3968H127.925V27.6663C127.245 28.3139 126.327 28.6595 125.384 28.6238C122.504 28.4513 120.257 26.0895 120.257 23.2342C120.257 20.3788 122.504 18.0171 125.384 17.8445C126.316 17.8522 127.216 18.1842 127.925 18.7823V18.0617H130.858ZM128.049 23.244C128.089 22.5958 127.857 21.96 127.407 21.4871C126.957 21.0142 126.33 20.7462 125.673 20.7466C124.318 20.7999 123.248 21.9023 123.248 23.244C123.248 24.5858 124.318 25.6881 125.673 25.7414C126.331 25.7454 126.96 25.4785 127.411 25.0047C127.861 24.531 128.092 23.8931 128.049 23.244ZM132.677 14.587C132.656 13.8895 133.067 13.2499 133.714 12.9717C134.36 12.6936 135.113 12.8327 135.615 13.3232C136.116 13.8137 136.266 14.5569 135.992 15.2001C135.719 15.8433 135.078 16.2572 134.372 16.2454C133.448 16.2345 132.698 15.5017 132.675 14.587H132.677ZM135.858 28.3968H132.925V18.0617H135.858V28.3968ZM148.439 28.3968H145.526V23.244C145.526 21.5857 144.555 20.7466 143.357 20.7466C142.68 20.7154 142.022 20.9693 141.545 21.4453C141.068 21.9213 140.817 22.5748 140.855 23.244V28.3968H137.922V18.0617H140.855V18.7823C141.616 18.1329 142.6 17.7972 143.603 17.8445C146.453 17.8445 148.437 20.2531 148.437 23.244V28.3968H148.439Z" fill="white"/>
</svg>
